<?xml version="1.0" encoding="iso-8859-1"?>
<svg version="1.1" viewBox="0 0 508 508" xml:space="preserve" xmlns="http://www.w3.org/2000/svg" xmlns:xlink="http://www.w3.org/1999/xlink">
  <circle cx="254" cy="254" r="254" style="fill:#db5461;"></circle>
  <path d="M342,406.4l-240-240c-2-2-2-5.6,0-7.6l56.8-56.8c2-2,5.6-2,7.6,0l240,240c2,2,2,5.6,0,7.6l-56.8,56.8  C347.2,408.4,344,408.4,342,406.4z" style="fill:rgb(241, 245, 249);"></path>
  <rect height="17.2" style="fill:rgb(148 163 184);" transform="matrix(0.7071 0.7071 -0.7071 0.7071 147.9989 -38.0108)" width="8" x="115.883" y="151.045"></rect>
  <rect height="17.2" style="fill:rgb(148 163 184);" transform="matrix(0.7071 0.7071 -0.7071 0.7071 159.5992 -42.746)" width="8" x="127.399" y="162.68"></rect>
  <rect height="28.8" style="fill:rgb(148 163 184);" transform="matrix(0.7071 0.7071 -0.7071 0.7071 170.4797 -52.2088)" width="8" x="144.262" y="165.283"></rect>
  <rect height="17.2" style="fill:rgb(148 163 184);" transform="matrix(0.7071 0.7071 -0.7071 0.7071 183.6337 -52.812)" width="8" x="151.567" y="186.66"></rect>
  <rect height="17.2" style="fill:rgb(148 163 184);" transform="matrix(0.7071 0.7071 -0.7071 0.7071 196.4056 -58.0039)" width="8" x="164.22" y="199.481"></rect>
  <rect height="28.8" style="fill:rgb(148 163 184);" transform="matrix(0.7071 0.7071 -0.7071 0.7071 206.1111 -67.0015)" width="8" x="179.934" y="200.897"></rect>
  <rect height="17.2" style="fill:rgb(148 163 184);" transform="matrix(0.7071 0.7071 -0.7071 0.7071 220.446 -68.0841)" width="8" x="188.408" y="223.46"></rect>
  <rect height="17.2" style="fill:rgb(148 163 184);" transform="matrix(0.7071 0.7071 -0.7071 0.7071 232.0122 -72.8168)" width="8" x="199.904" y="235.055"></rect>
  <rect height="28.8" style="fill:rgb(148 163 184);" transform="matrix(0.7071 0.7071 -0.7071 0.7071 242.3617 -82.2776)" width="8" x="216.499" y="237.018"></rect>
  <rect height="17.2" style="fill:rgb(148 163 184);" transform="matrix(0.7071 0.7071 -0.7071 0.7071 255.9531 -82.5826)" width="8" x="223.663" y="259.072"></rect>
  <rect height="17.2" style="fill:rgb(148 163 184);" transform="matrix(0.7071 0.7071 -0.7071 0.7071 268.452 -87.9099)" width="8" x="236.343" y="271.495"></rect>
  <rect height="28.8" style="fill:rgb(148 163 184);" transform="matrix(0.7071 0.7071 -0.7071 0.7071 278.4352 -96.7834)" width="8" x="252.046" y="273.309"></rect>
  <rect height="17.2" style="fill:rgb(148 163 184);" transform="matrix(0.7071 0.7071 -0.7071 0.7071 292.4959 -97.9985)" width="8" x="260.543" y="295.475"></rect>
  <rect height="17.2" style="fill:rgb(148 163 184);" transform="matrix(0.7071 0.7071 -0.7071 0.7071 304.0574 -102.7199)" width="8" x="272.023" y="307.07"></rect>
  <rect height="28.8" style="fill:rgb(148 163 184);" transform="matrix(0.7071 0.7071 -0.7071 0.7071 314.9709 -112.1823)" width="8" x="288.902" y="309.712"></rect>
  <rect height="17.2" style="fill:rgb(148 163 184);" transform="matrix(0.7071 0.7071 -0.7071 0.7071 328.3696 -112.6619)" width="8" x="296.18" y="331.446"></rect>
  <rect height="17.2" style="fill:rgb(148 163 184);" transform="matrix(0.7071 0.7071 -0.7071 0.7071 341.0213 -117.798)" width="8" x="308.705" y="344.15"></rect>
  <rect height="28.8" style="fill:rgb(148 163 184);" transform="matrix(0.7071 0.7071 -0.7071 0.7071 350.6046 -126.9807)" width="8" x="324.582" y="345.327"></rect>
  <rect height="17.2" style="fill:rgb(148 163 184);" transform="matrix(0.7071 0.7071 -0.7071 0.7071 364.7823 -127.7695)" width="8" x="332.623" y="367.847"></rect>
  <rect height="17.2" style="fill:rgb(148 163 184);" transform="matrix(0.7071 0.7071 -0.7071 0.7071 376.3839 -132.5075)" width="8" x="344.143" y="379.482"></rect>
  <rect height="273.197" style="fill:#ffc482;" transform="matrix(-0.7071 -0.7071 0.7071 -0.7071 244.1651 616.5932)" width="71.599" x="213.984" y="121.13"></rect>
  <polygon points="128,329.2 112,396 178.8,380 " style="fill:rgb(241, 245, 249);"></polygon>
  <polygon points="117.2,374.4 112,396 133.6,390.8  " style="fill:rgb(30, 41, 59);"></polygon>
  <path d="M321.2,136l50.4,50.4l20-20c5.2-5.2,5.2-13.2,0-18.4l-32-32c-5.2-5.2-13.2-5.2-18.4,0L321.2,136z" style="fill:rgb(30, 41, 59);"></path>
</svg>
